<svg width="800" height="201" viewBox="0 0 800 201" fill="none" xmlns="http://www.w3.org/2000/svg">
<path d="M205.032 44.109C226.142 44.109 241.6 56.149 245.758 77.11H214.84C213.205 72.057 209.936 68.937 204.435 68.937C197.299 68.937 192.544 74.887 192.544 86.778C192.544 98.818 197.298 104.769 204.435 104.769C209.936 104.769 213.205 101.789 214.84 96.587H245.758C241.6 117.249 226.142 129.596 205.032 129.596C180.204 129.596 162.811 113.38 162.811 86.779C162.811 60.316 180.204 44.109 205.032 44.109Z" fill="white"/>
<path d="M293.648 129.596C268.819 129.596 250.091 113.38 250.091 86.779C250.091 60.317 268.969 44.11 293.796 44.11C318.625 44.11 337.503 60.317 337.503 86.779C337.503 113.38 318.476 129.596 293.648 129.596ZM293.648 104.322C301.083 104.322 307.92 98.818 307.92 86.779C307.92 74.888 301.233 69.385 293.796 69.385C286.361 69.385 279.822 74.888 279.822 86.779C279.823 98.818 286.063 104.322 293.648 104.322Z" fill="white"/>
<path d="M403.235 83.81C403.235 74.141 397.881 68.489 389.559 68.489C380.928 68.489 375.585 74.141 375.585 83.81V128.55H346.441V45.155H375.585V57.046C380.489 49.91 389.26 44.408 401.001 44.408C420.327 44.408 432.366 58.083 432.366 79.941V128.55H403.234V83.81H403.235Z" fill="white"/>
<path d="M469.555 45.155L485.461 101.05L501.07 45.155H532.138L503.45 128.55H467.171L438.477 45.155H469.555V45.155Z" fill="white"/>
<path d="M576.61 129.596C551.931 129.596 534.24 113.38 534.24 86.779C534.24 60.317 551.633 44.11 576.61 44.11C601.288 44.11 618.681 60.017 618.681 85.884C618.681 88.115 618.53 90.495 618.232 92.73H563.083C563.673 102.386 568.876 106.255 575.424 106.255C581.065 106.255 584.195 103.135 585.829 99.714H616.896C613.029 116.81 597.421 129.596 576.61 129.596ZM563.233 78.604H588.947C588.947 71.169 583.148 67.154 576.46 67.154C569.473 67.154 564.568 71.021 563.233 78.604Z" fill="white"/>
<path d="M656.755 128.55H627.619V45.155H656.755V59.867C663.003 50.797 672.512 44.407 683.665 44.407V75.475H675.491C663.441 75.475 656.755 79.342 656.755 92.128V128.55Z" fill="white"/>
<path d="M695.725 69.385H685.468V45.155H695.725V24.932H725.008V45.156H740.168V69.385H725.008V97.334C725.008 101.789 726.941 103.732 731.845 103.732H740.319V128.55H727.679C709.249 128.55 695.725 120.817 695.725 96.886V69.385V69.385Z" fill="white"/>
<path d="M748.153 33.862C748.153 22.578 756.243 14.657 767.611 14.657C778.977 14.657 786.984 22.578 786.984 33.862C786.984 45.052 778.977 53.068 767.611 53.068C756.243 53.068 748.153 45.052 748.153 33.862ZM754.095 33.862C754.095 41.867 759.344 47.462 767.612 47.462C775.795 47.462 781.044 41.867 781.044 33.862C781.044 25.679 775.795 20.252 767.612 20.252C759.344 20.252 754.095 25.679 754.095 33.862ZM773.207 35.581L777.26 42.643H769.853L766.669 36.357H766.237V42.643H759.343V24.559H769.673C773.634 24.559 776.306 26.801 776.306 30.415C776.307 32.741 775.103 34.554 773.207 35.581ZM765.976 29.985V32.227H768.04C768.73 32.227 769.161 31.882 769.161 31.106C769.161 30.33 768.73 29.984 768.04 29.984H765.976V29.985Z" fill="white"/>
<path d="M79.1399 103.242L90.649 121.337C90.639 121.337 90.6389 121.337 90.6389 121.337C90.6489 121.337 90.649 121.337 90.649 121.337C98.214 133.246 114.009 136.755 125.901 129.189C137.81 121.624 141.332 105.849 133.756 93.928C126.19 82.03 110.413 78.522 98.5029 86.083H98.495L80.401 97.583C78.496 98.796 77.9359 101.336 79.1399 103.242Z" fill="#008CFF"/>
<path d="M75.198 89.381L93.293 77.884C105.203 70.307 108.723 54.522 101.147 42.621C93.581 30.712 77.795 27.2 65.885 34.766C53.986 42.333 50.473 58.118 58.039 70.019C58.039 70.027 58.039 70.027 58.039 70.027L69.538 88.119C70.752 90.032 73.284 90.594 75.198 89.381Z" fill="#FBB040"/>
<path d="M75.133 111.495L63.718 93.335C63.727 93.347 63.727 93.347 63.727 93.347C63.727 93.335 63.727 93.335 63.727 93.335C56.217 81.392 40.45 77.794 28.503 85.302C16.565 92.802 12.96 108.57 20.469 120.518C27.971 132.455 43.738 136.052 55.685 128.55L73.844 117.135C75.759 115.934 76.338 113.4 75.133 111.495Z" fill="#00D1B2"/>
<path d="M525.64 164.735C525.64 162.241 526.156 160.062 527.188 158.198C528.221 156.335 529.654 154.901 531.489 153.898C533.352 152.895 535.474 152.393 537.853 152.393C540.921 152.393 543.501 153.239 545.594 154.93C547.686 156.593 549.034 158.929 549.636 161.94H540.691C540.175 160.363 539.172 159.574 537.681 159.574C536.62 159.574 535.775 160.019 535.144 160.907C534.542 161.767 534.241 163.043 534.241 164.735C534.241 166.426 534.542 167.716 535.144 168.605C535.775 169.494 536.62 169.938 537.681 169.938C539.201 169.938 540.204 169.15 540.691 167.573H549.636C549.034 170.554 547.686 172.891 545.594 174.582C543.501 176.274 540.921 177.119 537.853 177.119C535.474 177.119 533.352 176.618 531.489 175.614C529.654 174.611 528.221 173.178 527.188 171.314C526.156 169.451 525.64 167.258 525.64 164.735Z" fill="white"/>
<path d="M564.361 177.119C561.953 177.119 559.788 176.618 557.868 175.614C555.975 174.611 554.485 173.178 553.395 171.314C552.306 169.451 551.761 167.258 551.761 164.735C551.761 162.241 552.306 160.062 553.395 158.198C554.513 156.335 556.019 154.901 557.911 153.898C559.831 152.895 561.996 152.393 564.404 152.393C566.812 152.393 568.962 152.895 570.854 153.898C572.775 154.901 574.28 156.335 575.37 158.198C576.488 160.062 577.047 162.241 577.047 164.735C577.047 167.229 576.488 169.422 575.37 171.314C574.28 173.178 572.775 174.611 570.854 175.614C568.934 176.618 566.769 177.119 564.361 177.119ZM564.361 169.809C565.536 169.809 566.511 169.379 567.285 168.519C568.088 167.63 568.489 166.369 568.489 164.735C568.489 163.101 568.088 161.853 567.285 160.993C566.511 160.133 565.551 159.703 564.404 159.703C563.257 159.703 562.297 160.133 561.523 160.993C560.749 161.853 560.362 163.101 560.362 164.735C560.362 166.397 560.734 167.659 561.48 168.519C562.225 169.379 563.186 169.809 564.361 169.809Z" fill="white"/>
<path d="M611.997 152.479C615.036 152.479 617.415 153.396 619.136 155.231C620.884 157.066 621.759 159.574 621.759 162.757V176.818H613.33V163.875C613.33 162.585 612.972 161.581 612.255 160.864C611.538 160.148 610.564 159.789 609.331 159.789C608.098 159.789 607.123 160.148 606.407 160.864C605.69 161.581 605.332 162.585 605.332 163.875V176.818H596.903V163.875C596.903 162.585 596.545 161.581 595.828 160.864C595.14 160.148 594.18 159.789 592.947 159.789C591.685 159.789 590.696 160.148 589.98 160.864C589.263 161.581 588.905 162.585 588.905 163.875V176.818H580.476V152.694H588.905V155.876C589.65 154.844 590.61 154.027 591.786 153.425C592.99 152.794 594.366 152.479 595.914 152.479C597.691 152.479 599.268 152.866 600.644 153.64C602.049 154.414 603.153 155.503 603.956 156.908C604.816 155.589 605.948 154.529 607.353 153.726C608.758 152.895 610.306 152.479 611.997 152.479Z" fill="white"/>
<path d="M634.805 156.048C635.464 154.93 636.396 154.041 637.6 153.382C638.804 152.723 640.223 152.393 641.857 152.393C643.778 152.393 645.513 152.895 647.061 153.898C648.638 154.901 649.87 156.335 650.759 158.198C651.676 160.062 652.135 162.241 652.135 164.735C652.135 167.229 651.676 169.422 650.759 171.314C649.87 173.178 648.638 174.611 647.061 175.614C645.513 176.618 643.778 177.119 641.857 177.119C640.223 177.119 638.804 176.79 637.6 176.13C636.425 175.471 635.493 174.582 634.805 173.464V188.343H626.376V152.694H634.805V156.048ZM643.578 164.735C643.578 163.158 643.148 161.94 642.287 161.079C641.456 160.191 640.424 159.746 639.191 159.746C637.959 159.746 636.912 160.191 636.052 161.079C635.221 161.968 634.805 163.187 634.805 164.735C634.805 166.311 635.221 167.544 636.052 168.433C636.912 169.322 637.959 169.766 639.191 169.766C640.424 169.766 641.456 169.322 642.287 168.433C643.148 167.516 643.578 166.283 643.578 164.735Z" fill="white"/>
<path d="M654.229 164.735C654.229 162.241 654.673 160.062 655.562 158.198C656.479 156.335 657.712 154.901 659.26 153.898C660.837 152.895 662.586 152.393 664.507 152.393C666.169 152.393 667.603 152.723 668.807 153.382C670.011 154.041 670.943 154.93 671.602 156.048V152.694H680.031V176.818H671.602V173.464C670.943 174.582 669.997 175.471 668.764 176.13C667.56 176.79 666.141 177.119 664.507 177.119C662.586 177.119 660.837 176.618 659.26 175.614C657.712 174.611 656.479 173.178 655.562 171.314C654.673 169.422 654.229 167.229 654.229 164.735ZM671.602 164.735C671.602 163.187 671.172 161.968 670.312 161.079C669.481 160.191 668.448 159.746 667.216 159.746C665.954 159.746 664.908 160.191 664.076 161.079C663.245 161.94 662.829 163.158 662.829 164.735C662.829 166.283 663.245 167.516 664.076 168.433C664.908 169.322 665.954 169.766 667.216 169.766C668.448 169.766 669.481 169.322 670.312 168.433C671.172 167.544 671.602 166.311 671.602 164.735Z" fill="white"/>
<path d="M700.615 152.479C703.396 152.479 705.604 153.411 707.238 155.274C708.872 157.109 709.689 159.603 709.689 162.757V176.818H701.26V163.875C701.26 162.499 700.902 161.423 700.185 160.649C699.469 159.847 698.508 159.445 697.304 159.445C696.043 159.445 695.054 159.847 694.337 160.649C693.62 161.423 693.262 162.499 693.262 163.875V176.818H684.833V152.694H693.262V156.134C694.007 155.045 695.011 154.17 696.272 153.511C697.534 152.823 698.981 152.479 700.615 152.479Z" fill="white"/>
<path d="M740.288 152.694L724.979 188.3H715.819L721.581 175.786L711.691 152.694H721.065L726.14 166.369L731.042 152.694H740.288Z" fill="white"/>
</svg>
